HIERARCHY
ROOT Hips
{
 OFFSET 0.000000 0.000000 0.000000
 CHANNELS 6 Xposition Yposition Zposition Yrotation Xrotation Zrotation
 JOINT Chest
 {
  OFFSET 0.000000 9.585900 0.002600
  CHANNELS 3 Yrotation Xrotation Zrotation
  JOINT Chest2
  {
   OFFSET 0.000000 9.601200 -0.005300
   CHANNELS 3 Yrotation Xrotation Zrotation
   JOINT Chest3
   {
    OFFSET 0.000000 9.561800 0.000000
    CHANNELS 3 Yrotation Xrotation Zrotation
    JOINT Chest4
    {
     OFFSET 0.000000 9.552100 0.000000
     CHANNELS 3 Yrotation Xrotation Zrotation
     JOINT Neck
     {
      OFFSET 0.000000 14.453000 0.000000
      CHANNELS 3 Yrotation Xrotation Zrotation
      JOINT Head
      {
       OFFSET 0.000000 8.936500 -0.011300
       CHANNELS 3 Yrotation Xrotation Zrotation
       End Site
       {
        OFFSET 0.000000 17.073600 -0.006000
       }
      }
     }
     JOINT RightCollar
     {
      OFFSET -2.921100 9.558500 0.000000
      CHANNELS 3 Yrotation Xrotation Zrotation
      JOINT RightShoulder
      {
       OFFSET -13.519700 0.000000 0.000000
       CHANNELS 3 Yrotation Xrotation Zrotation
       JOINT RightElbow
       {
        OFFSET 0.000000 -29.696600 0.000000
        CHANNELS 3 Yrotation Xrotation Zrotation
        JOINT RightWrist
        {
         OFFSET 0.000000 -24.004700 0.000000
         CHANNELS 3 Yrotation Xrotation Zrotation
         End Site
         {
          OFFSET 0.000000 -17.728500 0.000000
         }
        }
       }
      }
     }
     JOINT LeftCollar
     {
      OFFSET 2.921100 9.558500 0.000000
      CHANNELS 3 Yrotation Xrotation Zrotation
      JOINT LeftShoulder
      {
       OFFSET 13.519700 0.000000 0.000000
       CHANNELS 3 Yrotation Xrotation Zrotation
       JOINT LeftElbow
       {
        OFFSET 0.000000 -29.696600 0.000000
        CHANNELS 3 Yrotation Xrotation Zrotation
        JOINT LeftWrist
        {
         OFFSET 0.000000 -24.004700 0.000000
         CHANNELS 3 Yrotation Xrotation Zrotation
         End Site
         {
          OFFSET 0.000000 -17.728500 0.000000
         }
        }
       }
      }
     }
    }
   }
  }
 }
 JOINT RightHip
 {
  OFFSET -7.771700 -0.012900 -0.001300
  CHANNELS 3 Yrotation Xrotation Zrotation
  JOINT RightKnee
  {
   OFFSET 0.000000 -40.869800 0.001200
   CHANNELS 3 Yrotation Xrotation Zrotation
   JOINT RightAnkle
   {
    OFFSET 0.000000 -39.717900 0.002100
    CHANNELS 3 Yrotation Xrotation Zrotation
    JOINT RightToe
    {
     OFFSET 0.000000 -4.965400 11.033500
     CHANNELS 3 Yrotation Xrotation Zrotation
     End Site
     {
      OFFSET 0.000000 -1.423100 5.872300
     }
    }
   }
  }
 }
 JOINT LeftHip
 {
  OFFSET 7.771700 -0.012900 -0.001300
  CHANNELS 3 Yrotation Xrotation Zrotation
  JOINT LeftKnee
  {
   OFFSET 0.000000 -40.869800 0.001200
   CHANNELS 3 Yrotation Xrotation Zrotation
   JOINT LeftAnkle
   {
    OFFSET 0.000000 -39.717900 0.002100
    CHANNELS 3 Yrotation Xrotation Zrotation
    JOINT LeftToe
    {
     OFFSET 0.000000 -4.965400 11.033500
     CHANNELS 3 Yrotation Xrotation Zrotation
     End Site
     {
      OFFSET 0.000000 -1.423100 5.872300
     }
    }
   }
  }
 }
}
MOTION
Frames: 9
Frame Time: 0.008333
0.000000 85.388000 0.000000 0.000000 -5.767877 0.000000 0.000000 11.653817 0.000000 0.000000 -5.885947 0.000000 0.000000 -0.000000 0.000000 0.000000 -0.000000 0.000000 0.000000 12.528835 0.000000 0.000000 0.711642 0.000000 0.000000 -0.000000 0.000000 0.000000 0.000000 -90.000000 0.000000 -2.309062 0.000000 0.000000 2.309062 0.000000 0.000000 -0.000000 0.000000 0.000000 -0.000000 90.000000 0.000000 -2.309062 0.000000 0.000000 2.309062 0.000000 0.000000 8.520406 0.000000 0.000000 1.905762 0.000000 -0.000000 -4.658285 0.000000 0.000000 -0.000000 0.000000 0.000000 8.520406 0.000000 0.000000 1.905762 0.000000 -0.000000 -4.658285 0.000000 0.000000 -0.000000 0.000000
-88.183529 55.565542 -46.776519 -171.521679 -15.396937 -1.026651 -0.816264 15.660878 -0.335063 -0.067892 1.498146 0.006343 -0.127873 2.538159 0.008164 -0.654418 13.936182 -0.017882 -0.426138 13.559305 0.987387 -0.683810 -11.444782 1.127110 0.659092 1.042695 1.678688 -3.661603 -9.409221 -6.174171 -63.740094 -14.357752 99.704595 -36.644902 7.752138 9.878165 -7.927593 -0.927203 0.713154 11.335062 -15.285764 5.883930 56.269457 -27.853969 -98.184694 23.868251 -22.688338 5.788539 -2.483012 -60.242347 6.918880 -43.930381 84.826412 -50.182254 -9.386592 -17.651444 14.783399 0.092127 -0.163435 0.030586 10.675215 -56.597721 -13.024532 89.460859 71.024040 90.647562 0.465875 -19.208050 -2.373919 0.055586 0.331501 0.038293
-88.183171 55.568090 -46.775868 -171.517082 -15.401224 -1.025135 -0.804099 15.638147 -0.331441 -0.063957 1.489568 0.006243 -0.134546 2.544592 0.006469 -0.647654 13.931131 -0.017735 -0.447939 13.542009 0.969371 -0.707859 -11.458196 1.114739 0.675816 1.017196 1.670650 -3.868690 -9.552409 -6.146613 -64.215018 -14.510677 100.062618 -36.661324 7.852853 10.022320 -7.919019 -1.029885 0.740005 11.682412 -15.451536 5.821211 56.831637 -27.863446 -98.423694 23.952100 -22.689942 5.655974 -2.503831 -60.235298 6.926904 -43.847892 84.825073 -50.106152 -9.380216 -17.641291 14.779613 0.090564 -0.171574 0.029248 10.709136 -56.583660 -13.032584 89.426527 71.035711 90.612213 0.446021 -19.210635 -2.356937 0.065816 0.334802 0.038824
-88.182286 55.571685 -46.777514 -171.510004 -15.419363 -1.029321 -0.786084 15.622129 -0.321225 -0.077188 1.509145 0.005675 -0.102616 2.494063 0.007780 -0.665022 13.957535 -0.018719 -0.470323 13.555232 0.963355 -0.725345 -11.491942 1.090576 0.693216 0.968338 1.659045 -4.088675 -9.665700 -6.126547 -64.698226 -14.702525 100.444594 -36.661359 7.959387 10.170632 -7.905810 -1.128395 0.775643 12.009390 -15.611729 5.759213 57.417689 -27.913517 -98.686299 24.025477 -22.696070 5.518041 -2.529016 -60.213075 6.939381 -43.832352 84.816912 -50.094026 -9.363812 -17.629895 14.773472 0.084790 -0.181539 0.030857 10.709456 -56.561705 -13.022087 89.414372 71.047241 90.604906 0.437602 -19.208444 -2.361984 0.074281 0.331078 0.047952
-88.181450 55.575238 -46.778122 -171.504848 -15.430629 -1.032176 -0.776021 15.613172 -0.316780 -0.080565 1.514359 0.007347 -0.089680 2.477427 0.005145 -0.653536 13.947469 -0.013391 -0.500245 13.571561 0.957708 -0.736705 -11.517274 1.063869 0.705658 0.897383 1.641322 -4.321499 -9.748318 -6.110813 -65.184984 -14.932400 100.846327 -36.644106 8.069041 10.315499 -7.893253 -1.222436 0.817871 12.320925 -15.767206 5.703463 58.018921 -28.010165 -98.972498 24.087630 -22.718578 5.378389 -2.544101 -60.198079 6.946107 -43.802723 84.813420 -50.067292 -9.349141 -17.622680 14.769547 0.077619 -0.187358 0.033403 10.714666 -56.546093 -13.015818 89.399671 71.054503 90.591375 0.430196 -19.207958 -2.360599 0.078173 0.329247 0.050544
-88.182885 55.578748 -46.778183 -171.500730 -15.439255 -1.021687 -0.778425 15.615070 -0.328282 -0.046770 1.473623 0.003057 -0.101501 2.495804 0.007397 -0.644815 13.934937 -0.011787 -0.522758 13.566999 0.942785 -0.749072 -11.510993 1.049384 0.689725 0.893599 1.642357 -4.527078 -9.890798 -6.110641 -65.677422 -15.201276 101.261950 -36.613856 8.194552 10.448655 -7.874433 -1.313892 0.871023 12.618582 -15.918201 5.658714 58.636298 -28.155800 -99.285288 24.135561 -22.765259 5.246183 -2.529271 -60.188263 6.925485 -43.821264 84.808537 -50.083876 -9.368631 -17.611971 14.769400 0.085385 -0.190328 0.035957 10.733562 -56.532545 -13.033156 89.396852 71.057396 90.578048 0.438028 -19.203511 -2.350086 0.063599 0.322719 0.045769
-88.183909 55.582203 -46.778503 -171.493076 -15.447232 -1.016020 -0.763495 15.600206 -0.332628 -0.038546 1.466479 0.001694 -0.111744 2.505352 0.009162 -0.623893 13.919868 -0.010508 -0.545162 13.564643 0.927312 -0.761277 -11.498666 1.036250 0.683383 0.815608 1.623396 -4.754657 -9.955579 -6.103391 -66.175879 -15.501234 101.686368 -36.574673 8.339597 10.575968 -7.860504 -1.406256 0.930592 12.907029 -16.069294 5.625815 59.264483 -28.345397 -99.627200 24.168294 -22.840499 5.130761 -2.527473 -60.177693 6.911982 -43.844840 84.803217 -50.106203 -9.370009 -17.605870 14.762308 0.082520 -0.192324 0.039870 10.743523 -56.520120 -13.045334 89.384324 71.058580 90.562249 0.438987 -19.196629 -2.347307 0.060118 0.316663 0.039851
-88.183644 55.585400 -46.778882 -171.483979 -15.452381 -1.019925 -0.722734 15.564216 -0.326310 -0.066829 1.490602 0.007410 -0.123024 2.516011 0.011029 -0.550937 13.852607 -0.019711 -0.597761 13.607472 0.927858 -0.769874 -11.475310 1.024320 0.630433 0.776417 1.616766 -4.971870 -10.008886 -6.103302 -66.674550 -15.817707 102.118983 -36.523027 8.497414 10.707256 -7.883524 -1.450572 1.003850 13.191230 -16.222219 5.604858 59.890646 -28.568715 -99.996372 24.190331 -22.937905 5.028137 -2.537728 -60.172684 6.916857 -43.857003 84.801080 -50.117152 -9.377282 -17.589571 14.756489 0.083634 -0.202961 0.043205 10.754223 -56.508337 -13.042813 89.358684 71.071504 90.541973 0.422299 -19.197413 -2.345803 0.071302 0.317107 0.046028
-88.184620 55.588620 -46.780357 -171.469058 -15.463301 -1.020826 -0.720659 15.561049 -0.329933 -0.077168 1.499258 0.011494 -0.102573 2.494188 0.008011 -0.538741 13.840287 -0.024550 -0.608917 13.624351 0.918360 -0.773022 -11.444990 1.011529 0.604242 0.727340 1.604016 -5.173711 -10.071490 -6.117620 -67.162921 -16.138432 102.558332 -36.455230 8.656834 10.844616 -7.867162 -1.523865 1.070505 13.472831 -16.371563 5.596489 60.509207 -28.817942 -100.390299 24.201772 -23.047014 4.932896 -2.537210 -60.162558 6.902639 -43.872055 84.808470 -50.123571 -9.388119 -17.580494 14.745068 0.088751 -0.213777 0.051271 10.747676 -56.495211 -13.045708 89.352677 71.073014 90.534987 0.422572 -19.190583 -2.344502 0.068061 0.310877 0.044632
